<?xml version="1.0" standalone="no"?>
<!DOCTYPE svg PUBLIC "-//W3C//DTD SVG 20010904//EN"
 "http://www.w3.org/TR/2001/REC-SVG-20010904/DTD/svg10.dtd">
<svg version="1.0" xmlns="http://www.w3.org/2000/svg"
 width="512.000000pt" height="512.000000pt" viewBox="0 0 512.000000 512.000000"
 preserveAspectRatio="xMidYMid meet">

<g transform="translate(0.000000,512.000000) scale(0.100000,-0.100000)"
fill="#000000" stroke="none">
<path d="M1706 4079 c-217 -32 -403 -124 -557 -278 -126 -126 -209 -272 -256
-451 -37 -138 -36 -333 1 -474 32 -125 89 -243 165 -343 34 -44 357 -375 738
-755 640 -638 680 -676 720 -683 24 -4 57 -2 75 4 24 8 238 216 739 719 763
764 763 764 831 940 146 374 53 785 -240 1063 -128 122 -260 194 -438 240
-122 31 -321 32 -444 1 -162 -40 -305 -114 -433 -224 -66 -57 -50 -61 -167 36
-192 161 -482 242 -734 205z m324 -169 c47 -12 121 -38 165 -60 73 -35 107
-60 240 -174 33 -28 57 -40 89 -43 67 -8 90 2 163 68 113 103 208 158 343 201
65 20 96 23 225 23 173 0 234 -13 361 -75 169 -83 291 -204 374 -375 65 -133
83 -210 83 -360 0 -79 -6 -144 -17 -190 -26 -108 -104 -258 -179 -345 -36 -41
-332 -341 -658 -667 -644 -642 -613 -615 -706 -598 -34 6 -111 80 -666 633
-346 345 -648 654 -672 687 -102 143 -145 268 -152 445 -9 238 61 429 218 595
114 120 238 192 404 236 100 26 273 25 385 -1z"/>
</g>
</svg>
